<?xml version="1.0" encoding="utf-8"?>
<!-- Generator: Adobe Illustrator 16.0.0, SVG Export Plug-In . SVG Version: 6.00 Build 0)  -->
<!DOCTYPE svg PUBLIC "-//W3C//DTD SVG 1.1//EN" "http://www.w3.org/Graphics/SVG/1.1/DTD/svg11.dtd">
<svg version="1.1" id="Layer_1" xmlns="http://www.w3.org/2000/svg" xmlns:xlink="http://www.w3.org/1999/xlink" x="0px" y="0px"
	 width="300px" height="300px" viewBox="0 0 300 300" enable-background="new 0 0 300 300" xml:space="preserve">
<path id="pathA" fill="none" stroke="#FFFFFF" stroke-width="7.1344" stroke-miterlimit="10" d="M57.522,114.666h139.454
	c47.447-2.814,62.587,28.403,64.048,77.041c3.613,88.567-66.8,96.325-119.942,96.325c-44.855,0-73.664-13.12-100.058-44.123
	c-51.135-70.118,1.144-197.998,8.7-193.896l142.312,148.528"/>
<path id="pathB" fill="none" stroke="#619BD3" stroke-width="7.1344" stroke-miterlimit="10" d="M78.587,152.267h139.45"/>
<path id="pathC" fill="none" stroke="#ECEFAA" stroke-width="7.1344" stroke-miterlimit="10" d="M233.022,189.551H93.568
	c-96.464,0-63.496-118.219-44.461-136.429c45.81-73.6,217.241-50.267,230.561,60.901c7.295,61.326-12.721,123.054-51.089,152.72
	C169.9,312.117,65.37,277.612,60.294,261.93l126.778-155.987"/>
</svg>
